<?xml version="1.0" encoding="utf-8"?>
<!-- Generator: Adobe Illustrator 19.2.1, SVG Export Plug-In . SVG Version: 6.00 Build 0)  -->
<svg version="1.1" id="layer" xmlns="http://www.w3.org/2000/svg" xmlns:xlink="http://www.w3.org/1999/xlink" x="0px" y="0px"
	 viewBox="0 0 652 652" style="enable-background:new 0 0 652 652; " xml:space="preserve">
<style type="text/css">
	.st0{fill:#231815;}
	.st1{fill:#004B9F;}
</style>
<path class="st0" d="M377.6,305.2l5.1-11.6c0.3-0.8,1-1.1,1.9-0.8c4.7,2.1,8.7,3.7,16.4,3.7c6.7,0,10.8-2.9,10.8-7.9
	c0-4.6-2.2-7-13.2-11.8c-14.1-6-20.1-13.4-20.1-25.4c0-13.2,9.9-22.9,26.6-22.9c10.9,0,15.6,0.8,23.8,4.4c1,0.3,1,1.1,0.7,1.9
	l-5.3,10.3c-0.3,0.8-1,1.2-2,0.8c-4.4-1.8-8.9-2.7-14.2-2.7c-7.2,0-10.3,3.1-10.3,7.8c0,4.5,1.7,6.6,13.7,11.5
	c14.1,6,19.5,12.9,19.5,24.4c0,15.7-11.1,24.4-28.4,24.4c-9.3,0-16.6-0.8-24.3-4.7C377.6,306.1,377.3,305.6,377.6,305.2"/>
<path class="st0" d="M487.6,310.5c-0.8,0-1.2-0.5-1.2-1.5v-64.4c0-0.6-0.3-0.9-0.9-0.9h-18.8c-1,0-1.5-0.4-1.5-1.5v-11.5
	c0-1,0.4-1.5,1.5-1.5h57.3c0.9,0,1.4,0.4,1.4,1.5v11.5c0,1-0.4,1.5-1.4,1.5H505c-0.6,0-0.8,0.3-0.8,0.9V309c0,1-0.4,1.5-1.5,1.5
	H487.6z"/>
<path class="st0" d="M625.1,285.4c0,15.9-8.9,25.9-31,25.9c-22,0-30.9-10-30.9-25.9v-54.7c0-1,0.4-1.5,1.5-1.5h15.1
	c0.8,0,1.2,0.4,1.2,1.5v54.2c0,8,4.4,11.9,13.2,11.9c8.9,0,13.3-3.9,13.3-11.9v-54.2c0-1,0.5-1.5,1.4-1.5h15.2
	c0.8,0,1.2,0.4,1.2,1.5V285.4z"/>
<path class="st0" d="M392.1,379.8h25.2c0.8,0,1.2,0.3,1.2,1.1v7.2c0,0.8-0.5,1.1-1.2,1.1h-25.2V424c0,0.8-0.3,1.1-1,1.1h-9.1
	c-0.8,0-1.1-0.3-1.1-1.1v-78.9c0-0.8,0.3-1.1,1.1-1.1h42.5c0.8,0,1.2,0.3,1.2,1.1v7.1c0,0.8-0.4,1.2-1.2,1.2H393
	c-0.6,0-0.9,0.3-0.9,0.9V379.8z"/>
<path class="st0" d="M473.6,379.8h26.3c0.8,0,1.2,0.3,1.2,1.1v7.2c0,0.8-0.5,1.1-1.2,1.1h-26.3v25.5c0,0.6,0.2,0.9,0.8,0.9h32.7
	c0.8,0,1.2,0.3,1.2,1.1v7.2c0,0.8-0.4,1.1-1.2,1.1h-43.6c-0.8,0-1.1-0.3-1.1-1.1v-78.9c0-0.8,0.3-1.1,1.1-1.1h43.6
	c0.8,0,1.2,0.3,1.2,1.1v7.1c0,0.8-0.4,1.2-1.2,1.2h-32.7c-0.6,0-0.8,0.3-0.8,0.9V379.8z"/>
<path class="st0" d="M557.9,343.9c0.7,0,1,0.3,1,1.1V424c0,0.8-0.3,1.1-1,1.1h-9.1c-0.8,0-1.1-0.3-1.1-1.1v-78.9
	c0-0.8,0.3-1.1,1.1-1.1H557.9z"/>
<path class="st1" d="M40.2,341.9c8.4,0,15.2-6.8,15.2-15.1c0-8.4-6.8-15.1-15.2-15.1c-8.4,0-15.2,6.7-15.2,15.1
	C25.1,335.1,31.8,341.9,40.2,341.9"/>
<path class="st1" d="M40.2,425.1c8.4,0,15.2-6.8,15.2-15.1c0-8.4-6.8-15.2-15.2-15.2c-8.4,0-15.2,6.8-15.2,15.2
	C25.1,418.3,31.8,425.1,40.2,425.1"/>
<path class="st1" d="M123.4,341.9c8.4,0,15.1-6.8,15.1-15.1c0-8.4-6.8-15.1-15.1-15.1c-8.4,0-15.2,6.7-15.2,15.1
	C108.3,335.1,115.1,341.9,123.4,341.9"/>
<path class="st1" d="M123.4,425.1c8.4,0,15.1-6.8,15.1-15.1c0-8.4-6.8-15.2-15.1-15.2c-8.4,0-15.2,6.8-15.2,15.2
	C108.3,418.3,115.1,425.1,123.4,425.1"/>
<path class="st1" d="M206.6,341.9c8.4,0,15.2-6.8,15.2-15.1c0-8.4-6.8-15.1-15.2-15.1c-8.4,0-15.1,6.7-15.1,15.1
	C191.5,335.1,198.3,341.9,206.6,341.9"/>
<path class="st1" d="M40.2,258.6c8.4,0,15.2-6.8,15.2-15.1c0-8.4-6.8-15.1-15.2-15.1c-8.4,0-15.2,6.8-15.2,15.1
	C25.1,251.9,31.8,258.6,40.2,258.6"/>
<path class="st1" d="M123.4,258.6c8.4,0,15.1-6.8,15.1-15.1c0-8.4-6.8-15.1-15.1-15.1c-8.4,0-15.2,6.8-15.2,15.1
	C108.3,251.9,115.1,258.6,123.4,258.6"/>
<path class="st1" d="M206.6,258.6c8.4,0,15.2-6.8,15.2-15.1c0-8.4-6.8-15.1-15.2-15.1c-8.4,0-15.1,6.8-15.1,15.1
	C191.5,251.9,198.3,258.6,206.6,258.6"/>
<path class="st1" d="M206.6,425.1c8.4,0,15.2-6.8,15.2-15.1c0-8.4-6.8-15.2-15.2-15.2c-8.4,0-15.1,6.8-15.1,15.2
	C191.5,418.3,198.3,425.1,206.6,425.1"/>
<path class="st1" d="M289.9,341.9c8.4,0,15.2-6.8,15.2-15.1c0-8.4-6.8-15.1-15.2-15.1c-8.4,0-15.1,6.7-15.1,15.1
	C274.7,335.1,281.5,341.9,289.9,341.9"/>
<path class="st1" d="M289.9,425.1c8.4,0,15.2-6.8,15.2-15.1c0-8.4-6.8-15.2-15.2-15.2c-8.4,0-15.1,6.8-15.1,15.2
	C274.7,418.3,281.5,425.1,289.9,425.1"/>
<path class="st1" d="M289.9,258.6c8.4,0,15.2-6.8,15.2-15.2c0-8.3-6.8-15.1-15.2-15.1c-8.4,0-15.1,6.8-15.1,15.1
	C274.7,251.9,281.5,258.6,289.9,258.6"/>
</svg>
